<svg xmlns="http://www.w3.org/2000/svg" version="1.1" xmlns:xlink="http://www.w3.org/1999/xlink" xmlns:svgjs="http://svgjs.dev/svgjs" width="1440" height="560" preserveAspectRatio="none" viewBox="0 0 1440 560"><g mask="url(&quot;#SvgjsMask1003&quot;)" fill="none"><path d="M140 123.33C72.85 111.94 38.73 147.45 0 113.33C-31.27 85.78 -31.32 25.35 0 0C38.68 -31.32 70 0 140 0C206.41 0 207.89 -3.46 272.82 0C277.89 0.27 275.21 7.47 280 7.47C298.8 7.47 299.75 1.08 320 0C369.75 -2.65 370 0 420 0C490 0 490 0 560 0C630 0 630 0 700 0C770 0 770 0 840 0C857.5 0 875 -5.45 875 0C875 6.62 856.37 10.61 840 24.14C771.67 80.61 705.6 95.05 705.6 140C705.6 175.99 773.76 186.03 840 186.03C893.46 186.03 899.04 171.1 945 140C969.04 123.73 959.97 113.5 980 91.3C1023.12 43.5 1020.47 33.15 1071.3 0C1090.47 -12.5 1095.65 0 1120 0C1190 0 1190 0 1260 0C1330 0 1330 0 1400 0C1470 0 1505 -35 1540 0C1575 35 1540 70 1540 140C1540 187.42 1546.49 188.77 1540 234.84C1536.63 258.77 1520.28 259.52 1520.28 280C1520.28 291.08 1538.23 285.4 1540 297.95C1548.09 355.4 1540 358.98 1540 420C1540 490 1575 525 1540 560C1505 595 1470 560 1400 560C1330 560 1330 560 1260 560C1190 560 1190 560 1120 560C1050 560 1050 560 980 560C910 560 910 560 840 560C770 560 770 560 700 560C630 560 630 560 560 560C490 560 490 560 420 560C350 560 350 560 280 560C210 560 210 560 140 560C70 560 35 595 0 560C-35 525 0 490 0 420C0 350 0 350 0 280C0 222.18 -31.66 191.28 0 164.35C38.34 131.73 74.12 171.1 140 160.9C152.76 158.92 157.28 149.96 157.28 140C157.28 131.18 151.49 125.28 140 123.33" stroke="rgba(253, 85, 38, 1)" stroke-width="2"></path><path d="M1260 110.11C1212.84 113.73 1209.82 117.73 1168.28 140C1139.82 155.26 1138.27 158.23 1120 185.16C1090.79 228.23 1073.33 235.85 1073.33 280C1073.33 309.06 1089.18 326 1120 331.58C1182.52 342.9 1194.83 332.91 1260 313.79C1282.75 307.12 1279.51 298.39 1295.85 280C1349.51 219.61 1343.3 211.83 1400 156.23C1414.68 141.83 1438.62 148.44 1438.62 140C1438.62 131.43 1420.74 125.69 1400 122.22C1331.43 110.75 1328.7 104.84 1260 110.11" stroke="rgba(253, 85, 38, 1)" stroke-width="2"></path><path d="M420 268C403.16 268 392.68 265.09 387.69 280C367.23 341.09 358.73 355.73 369.09 420C374.89 456 393.24 480.54 420 480.54C448.96 480.54 463.12 457.42 480.54 420C509.79 357.15 531.63 325.94 513.33 280C501.36 249.94 465.98 268 420 268" stroke="rgba(253, 85, 38, 1)" stroke-width="2"></path><path d="M700 146.36C653.6 146.36 591.13 206.73 577.5 280C565.68 343.55 604.02 359.53 649.09 420C665.27 441.7 674.25 444.35 700 444.35C728.67 444.35 751.45 445.34 757.93 420C772.45 363.17 756.52 348.61 742 280C727.56 211.79 735.85 146.36 700 146.36" stroke="rgba(253, 85, 38, 1)" stroke-width="2"></path><path d="M140 390.83C111.38 390.83 81.67 403.21 81.67 420C81.67 438.38 111.72 461.18 140 461.18C165.3 461.18 188.84 438.61 188.84 420C188.84 403.43 164.96 390.83 140 390.83" stroke="rgba(253, 85, 38, 1)" stroke-width="2"></path><path d="M980 393.08C955.73 393.08 928.15 404.9 928.15 420C928.15 436.31 956.44 455.9 980 455.9C997.58 455.9 1010.43 436.86 1010.43 420C1010.43 405.45 996.87 393.08 980 393.08" stroke="rgba(253, 85, 38, 1)" stroke-width="2"></path><path d="M1400 384.15C1383.21 384.15 1366.21 402.18 1366.21 420C1366.21 437.6 1383.2 455 1400 455C1416.61 455 1433.03 437.6 1433.03 420C1433.03 402.17 1416.62 384.15 1400 384.15" stroke="rgba(253, 85, 38, 1)" stroke-width="2"></path><path d="M140 81.67C82.69 37.3 19.65 22.35 19.65 0C19.65 -18.49 79.82 0 140 0C183.98 0 190.19 -14.6 227.95 0C260.19 12.47 246.6 47.37 280 54.13C342.63 66.81 351.36 52.99 420 38.89C483.12 25.92 481.43 17.25 543.53 0C551.43 -2.19 551.76 0 560 0C630 0 630 0 700 0C739.57 0 779.13 -15.43 779.13 0C779.13 20.97 744.83 44.16 700 72.8C635.26 114.16 630 106.4 560 140C560 140 560 140 560 140C490 179 492.76 185.19 420 218C352.76 248.32 348.63 239.5 280 266.27C269.17 270.5 271.34 274.43 261.08 280C201.34 312.41 200.37 342.22 140 342.22C80.88 342.22 22.11 312 22.11 280C22.11 247.46 87.54 254.3 140 213.13C176.73 184.3 200.49 174.86 200.49 140C200.49 109.13 173.11 107.3 140 81.67" stroke="rgba(253, 85, 38, 1)" stroke-width="2"></path><path d="M1260 70.79C1203.31 55.15 1158.39 19.44 1158.39 0C1158.39 -15.95 1209.2 0 1260 0C1330 0 1330 0 1400 0C1470 0 1495 -25 1540 0C1565 13.89 1564.95 65.9 1540 77.78C1494.95 99.23 1470.09 68.42 1400 66.67C1330.09 64.92 1324.12 88.48 1260 70.79" stroke="rgba(253, 85, 38, 1)" stroke-width="2"></path><path d="M792 280C792 252.4 810.02 245.13 840 233.97C904.02 210.13 923.02 195.25 980 210C1011.91 218.26 1017.78 246.85 1017.78 280C1017.78 304.73 1004.96 311.03 980 325.77C916.07 363.53 893.42 398.01 840 385C799.42 375.12 792 327.91 792 280" stroke="rgba(253, 85, 38, 1)" stroke-width="2"></path><path d="M1338.54 280C1338.54 244.8 1367.96 206.96 1400 206.96C1434.19 206.96 1470.99 245.01 1470.99 280C1470.99 312.26 1434.39 341.46 1400 341.46C1368.17 341.46 1338.54 312.05 1338.54 280" stroke="rgba(253, 85, 38, 1)" stroke-width="2"></path><path d="M270.23 420C286.94 400.63 275.17 367.5 280 367.5C284.83 367.5 275.36 398.12 289.55 420C337.79 494.37 407.69 518.54 404.86 560C402.91 588.54 342.43 560 280 560C210 560 210 560 140 560C103.34 560 66.67 567.25 66.67 560C66.67 552.15 107.67 552.04 140 529.8C209.45 482.04 216.94 481.78 270.23 420" stroke="rgba(253, 85, 38, 1)" stroke-width="2"></path><path d="M1086.52 420C1086.52 402.38 1100.19 400.52 1120 392.98C1186.93 367.53 1197.28 345.79 1260 354.02C1300.27 359.3 1293.3 386.7 1325.98 420C1363.3 458.03 1363.21 496.67 1400 496.67C1436.4 496.67 1436.89 458.98 1472.36 420C1506.89 382.05 1520.7 342.82 1540 342.82C1554.52 342.82 1540 381.41 1540 420C1540 467.03 1554.48 473.38 1540 514.06C1529.57 543.38 1520.21 550.14 1490.17 560C1450.21 573.11 1445.09 560 1400 560C1353.34 560 1348.1 573.12 1306.67 560C1278.1 550.95 1289.22 525.53 1260 515.67C1195.88 494.03 1174.4 527 1120 497C1087.66 479.17 1086.52 454.39 1086.52 420" stroke="rgba(253, 85, 38, 1)" stroke-width="2"></path><path d="M513.33 560C513.33 546.33 530.27 523.67 560 513.33C623.6 491.21 634.13 483.01 700 495.07C761.56 506.34 814.87 542.64 814.87 560C814.87 575.11 757.43 560 700 560C630 560 630 560 560 560C536.66 560 513.33 569.67 513.33 560" stroke="rgba(253, 85, 38, 1)" stroke-width="2"></path><path d="M929.09 560C929.09 556.34 954.71 545.64 980 545.64C1001.71 545.64 1023.08 556.32 1023.08 560C1023.08 563.5 1001.54 560 980 560C954.55 560 929.09 563.52 929.09 560" stroke="rgba(253, 85, 38, 1)" stroke-width="2"></path><path d="M140 40C112.05 40 81.05 10.94 81.05 0C81.05 -9.06 110.53 0 140 0C161.54 0 183.08 -8.46 183.08 0C183.08 11.54 163.06 40 140 40" stroke="rgba(253, 85, 38, 1)" stroke-width="2"></path><path d="M243.7 140C243.7 118.72 255.66 105.81 280 100.8C343.81 87.66 354.06 90.11 420 103.7C449.19 109.71 470.26 123.32 470.26 140C470.26 155.47 447.28 159.73 420 168C352.15 188.56 339.72 207.13 280 197.65C251.57 193.13 243.7 167.14 243.7 140" stroke="rgba(253, 85, 38, 1)" stroke-width="2"></path><path d="M700 2.8C697.29 2.8 694.17 0.74 694.17 0C694.17 -0.66 697.09 0 700 0C701.52 0 703.04 -0.59 703.04 0C703.04 0.81 701.73 2.8 700 2.8" stroke="rgba(253, 85, 38, 1)" stroke-width="2"></path><path d="M1260 31.46C1234.07 29.9 1214.84 8.64 1214.84 0C1214.84 -7.09 1237.42 0 1260 0C1330 0 1330 0 1400 0C1414 0 1428 -2.68 1428 0C1428 2.88 1414.75 8.35 1400 11.11C1330.75 24.08 1326.65 35.46 1260 31.46" stroke="rgba(253, 85, 38, 1)" stroke-width="2"></path><path d="M114.21 280C114.21 272.88 127.06 265.37 140 265.37C153.2 265.37 166.49 272.88 166.49 280C166.49 287 153.21 293.61 140 293.61C127.07 293.61 114.21 287 114.21 280" stroke="rgba(253, 85, 38, 1)" stroke-width="2"></path><path d="M1381.22 280C1381.22 269.24 1390.21 257.68 1400 257.68C1410.45 257.68 1421.69 269.31 1421.69 280C1421.69 289.86 1410.51 298.78 1400 298.78C1390.27 298.78 1381.22 289.79 1381.22 280" stroke="rgba(253, 85, 38, 1)" stroke-width="2"></path><path d="M1185.33 420C1185.33 404.67 1225.63 394.25 1260 394.25C1275.84 394.25 1285.75 405.95 1285.75 420C1285.75 437.49 1277.67 457.33 1260 457.33C1227.46 457.33 1185.33 436.21 1185.33 420" stroke="rgba(253, 85, 38, 1)" stroke-width="2"></path><path d="M1511.69 420C1511.69 403.16 1531.92 387.69 1540 387.69C1546.08 387.69 1540 403.85 1540 420C1540 439.69 1546.34 459.38 1540 459.38C1532.19 459.38 1511.69 439.01 1511.69 420" stroke="rgba(253, 85, 38, 1)" stroke-width="2"></path><path d="M229.09 560C229.09 549.67 256.95 522.67 280 522.67C297.54 522.67 310.27 548.55 310.27 560C310.27 567.21 295.13 560 280 560C254.55 560 229.09 568.33 229.09 560" stroke="rgba(253, 85, 38, 1)" stroke-width="2"></path><path d="M667.33 560C667.33 556.3 684.04 545.8 700 545.8C712.94 545.8 725.13 556.2 725.13 560C725.13 563.3 712.57 560 700 560C683.66 560 667.33 563.4 667.33 560" stroke="rgba(253, 85, 38, 1)" stroke-width="2"></path><path d="M1368.07 560C1368.07 554.07 1384.12 538.33 1400 538.33C1415.51 538.33 1430.85 554.04 1430.85 560C1430.85 564.88 1415.43 560 1400 560C1384.03 560 1368.07 564.91 1368.07 560" stroke="rgba(253, 85, 38, 1)" stroke-width="2"></path></g><defs><mask id="SvgjsMask1003"><rect width="1440" height="560" fill="#ffffff"></rect></mask></defs></svg>