<svg xmlns="http://www.w3.org/2000/svg" version="1.1" xmlns:xlink="http://www.w3.org/1999/xlink" xmlns:svgjs="http://svgjs.dev/svgjs" width="1500" height="431" viewBox="0 0 1500 431"><g transform="matrix(1,0,0,1,-0.9090909090909918,2.9416115776174365)"><svg viewBox="0 0 396 114" data-background-color="#ffffff" preserveAspectRatio="xMidYMid meet" height="431" width="1500" xmlns="http://www.w3.org/2000/svg" xmlns:xlink="http://www.w3.org/1999/xlink"><g id="tight-bounds" transform="matrix(1,0,0,1,0.2400000000000091,-0.11996214634461921)"><svg viewBox="0 0 395.52 114.23992429268924" height="114.23992429268924" width="395.52"><g><svg viewBox="0 0 395.52 114.23992429268924" height="114.23992429268924" width="395.52"><g><svg viewBox="0 0 597.6193956378947 172.61325473684212" height="114.23992429268924" width="395.52"><g transform="matrix(1,0,0,1,202.09939563789476,23.856101052631587)"><svg viewBox="0 0 395.52 124.90105263157895" height="124.90105263157895" width="395.52"><g id="textblocktransform"><svg viewBox="0 0 395.52 124.90105263157895" height="124.90105263157895" width="395.52" id="textblock"><g><svg viewBox="0 0 395.52 124.90105263157895" height="124.90105263157895" width="395.52"><g transform="matrix(1,0,0,1,0,0)"><svg width="395.52" viewBox="2.15 -33.33 106.86999999999999 33.75" height="124.90105263157895" data-palette-color="#fd5526"><path d="M8.72 0.42L8.72 0.42Q7.12 0.42 5.3-0.19 3.47-0.8 2.15-2.22L2.15-2.22 3.19-6.32Q4.17-4.69 5.69-3.73 7.22-2.78 8.96-2.78L8.96-2.78Q10.63-2.78 11.46-3.59 12.29-4.41 12.29-5.59L12.29-5.59Q12.29-6.94 11.41-7.57 10.52-8.19 9.83-8.44L9.83-8.44 7.01-9.51Q6.25-9.83 5.17-10.43 4.1-11.04 3.3-12.19 2.5-13.33 2.5-15.17L2.5-15.17Q2.5-16.84 3.3-18.23 4.1-19.62 5.56-20.43 7.01-21.25 8.99-21.25L8.99-21.25Q10.56-21.25 12.26-20.69 13.96-20.14 15.14-18.82L15.14-18.82 14.1-14.72Q13.26-16.25 11.84-17.15 10.42-18.06 8.89-18.06L8.89-18.06Q7.47-18.06 6.65-17.26 5.83-16.46 5.83-15.42L5.83-15.42Q5.83-14.58 6.39-13.92 6.94-13.26 8.06-12.85L8.06-12.85 10.87-11.77Q11.63-11.49 12.76-10.87 13.89-10.24 14.76-9.06 15.63-7.88 15.63-5.87L15.63-5.87Q15.63-3.06 13.66-1.32 11.7 0.42 8.72 0.42ZM27.22 0L23.47 0 23.47-17.71 18.75-17.71 18.75-20.83 23.57-20.83 23.57-27.78 27.12-27.78 27.12-20.83 32.29-20.83 32.29-17.71 27.22-17.71 27.22 0ZM40.41 0L36.66 0 36.66-20.83 40.41-20.83 40.41 0ZM38.54-24.58L38.54-24.58Q37.49-24.58 36.77-25.31 36.04-26.04 36.04-27.08L36.04-27.08Q36.04-28.16 36.77-28.87 37.49-29.58 38.54-29.58L38.54-29.58Q39.61-29.58 40.32-28.87 41.04-28.16 41.04-27.08L41.04-27.08Q41.04-26.04 40.32-25.31 39.61-24.58 38.54-24.58ZM65.41 0L60.65 0 51.24-11.46 58.99-20.83 63.33-20.83 55.72-11.74 65.41 0ZM50.83 0L47.08 0 47.08-33.33 50.83-33.33 50.83 0ZM77.87 0.28L77.87 0.28Q75.02 0.28 72.66-1.16 70.3-2.6 68.9-5.03 67.49-7.47 67.49-10.42L67.49-10.42Q67.49-13.37 68.9-15.8 70.3-18.23 72.66-19.67 75.02-21.11 77.87-21.11L77.87-21.11Q80.02-21.11 81.92-20.31 83.81-19.51 85.2-18.09L85.2-18.09 85.2-20.83 88.67-20.83 88.67 0 85.2 0 85.2-2.74Q83.81-1.35 81.92-0.54 80.02 0.28 77.87 0.28ZM78.36-3.13L78.36-3.13Q80.34-3.13 81.95-4.11 83.57-5.1 84.52-6.75 85.48-8.4 85.48-10.42L85.48-10.42Q85.48-12.43 84.52-14.08 83.57-15.73 81.95-16.72 80.34-17.71 78.36-17.71L78.36-17.71Q76.38-17.71 74.76-16.72 73.15-15.73 72.19-14.08 71.24-12.43 71.24-10.42L71.24-10.42Q71.24-8.4 72.19-6.75 73.15-5.1 74.76-4.11 76.38-3.13 78.36-3.13ZM108.46 0L93.39 0 103.25-17.5 94.02-17.5 94.02-20.83 109.02-20.83 99.15-3.33 108.46-3.33 108.46 0Z" opacity="1" transform="matrix(1,0,0,1,0,0)" fill="#fd5526" class="wordmark-text-0" data-fill-palette-color="primary" id="text-0"></path></svg></g></svg></g></svg></g></svg></g><g><svg viewBox="0 0 172.61325473684212 172.61325473684212" height="172.61325473684212" width="172.61325473684212"><g><svg xmlns="http://www.w3.org/2000/svg" xmlns:xlink="http://www.w3.org/1999/xlink" version="1.1" x="0" y="0" viewBox="5 5 90 90" style="enable-background:new 0 0 100 100;" xml:space="preserve" height="172.61325473684212" width="172.61325473684212" class="icon-icon-0" data-fill-palette-color="accent" id="icon-0"><path d="M53.75 5C42.731 5 32.373 9.291 24.582 17.082L17.082 24.582C9.291 32.373 5 42.731 5 53.75S9.291 75.127 17.082 82.918 35.231 95 46.25 95 67.627 90.709 75.418 82.918L82.918 75.418C90.709 67.627 95 57.269 95 46.25S90.709 24.873 82.918 17.082 64.769 5 53.75 5M71.883 79.383C57.748 93.516 34.752 93.516 20.617 79.383 6.483 65.249 6.483 42.251 20.617 28.117 27.684 21.051 36.967 17.516 46.25 17.516S64.815 21.05 71.883 28.117C86.017 42.251 86.017 65.249 71.883 79.383M86.858 60.994A42 42 0 0 0 87.5 53.75C87.5 42.731 83.209 32.373 75.418 24.582S57.269 12.5 46.25 12.5C43.795 12.5 41.375 12.725 39.007 13.142A36.3 36.3 0 0 1 53.75 10.016C63.033 10.016 72.315 13.55 79.383 20.617 90.281 31.516 92.767 47.682 86.858 60.994" fill="#fd5526" data-fill-palette-color="accent"></path><path d="M46.25 22.5A31.07 31.07 0 0 0 28.74 27.88 2 2 0 0 0 28.494 28.055C20.349 33.701 15 43.11 15 53.75 15 70.981 29.019 85 46.25 85 56.891 85 66.302 79.65 71.948 71.503 72.009 71.424 72.069 71.346 72.12 71.262A31.1 31.1 0 0 0 77.5 53.75C77.5 36.519 63.481 22.5 46.25 22.5M46.25 80C31.775 80 20 68.225 20 53.75 20 49.514 21.015 45.512 22.805 41.966A31.5 31.5 0 0 0 22.5 46.25C22.5 63.481 36.519 77.5 53.75 77.5 55.193 77.5 56.622 77.389 58.034 77.195A26.1 26.1 0 0 1 46.25 80M68.171 68.166A26.1 26.1 0 0 1 53.75 72.5C39.275 72.5 27.5 60.725 27.5 46.25A26.1 26.1 0 0 1 31.834 31.829 26.1 26.1 0 0 1 46.25 27.5C60.725 27.5 72.5 39.275 72.5 53.75A26.1 26.1 0 0 1 68.171 68.166" fill="#fd5526" data-fill-palette-color="accent"></path></svg></g></svg></g></svg></g></svg></g><defs></defs></svg><rect width="395.52" height="114.23992429268924" fill="none" stroke="none" visibility="hidden"></rect></g></svg></g></svg>